<svg width="74" height="58" viewBox="0 0 74 58" fill="none" xmlns="http://www.w3.org/2000/svg">
<path d="M37 13.2674V49.5174M67.8333 11.2858V40.4549C67.8333 42.7749 65.4283 44.9499 62.4683 45.2399L61.4508 45.3366C54.7291 46.0374 44.3691 48.7199 38.4491 51.2816C37.6475 51.6441 36.3216 51.6441 35.4891 51.2816L35.3658 51.2333C29.4458 48.6958 19.1166 46.0374 12.4258 45.3366L11.5316 45.2399C8.57163 44.9499 6.16663 42.7749 6.16663 40.4549V11.2616C6.16663 8.38576 9.15746 6.21076 12.8266 6.45243C19.3016 6.86326 29.1066 9.42493 34.595 12.1074L35.3658 12.4699C36.26 12.9049 37.74 12.9049 38.6341 12.4699L39.1583 12.2041C41.1008 11.2616 43.5675 10.3191 46.25 9.47326V19.3333L52.4166 16.1191L58.5833 19.3333V6.71826C59.4158 6.59743 60.2175 6.52493 60.9575 6.47659H61.1425C64.8116 6.23493 67.8333 8.38576 67.8333 11.2858Z" stroke="black" stroke-width="1.5" stroke-linecap="round" stroke-linejoin="round"/>
<path d="M58.5833 6.71826V19.3333L52.4167 16.1191L46.25 19.3333V9.47326C50.2892 8.2166 54.7908 7.2016 58.5833 6.71826V6.71826Z" stroke="black" stroke-width="1.5" stroke-linecap="round" stroke-linejoin="round"/>
</svg>
