<svg width="109" height="107" viewBox="0 0 109 107" fill="none" xmlns="http://www.w3.org/2000/svg">
<g clip-path="url(#clip0_117_1796)">
<path d="M36.7134 89.5634C32.2075 87.3919 28.6819 82.9052 25.7227 75.8455L18.0365 57.5088C11.6313 42.2281 15.5764 33.3882 31.8442 26.5693L51.3656 18.3865C58.4909 15.3997 64.216 14.3654 68.9488 15.4356M81.7164 27.187C82.1914 28.1377 82.6595 29.1631 83.1079 30.2328L90.7941 48.5696C97.1993 63.8502 93.2542 72.6901 76.9864 79.5091L57.465 87.6919C55.0573 88.7011 52.7937 89.5062 50.6483 90.0462" stroke="white" stroke-width="1.5" stroke-linecap="round" stroke-linejoin="round"/>
<path d="M74.1406 8.83986L34.69 97.2385M58.2614 67.4163C59.6218 67.924 61.216 67.2557 61.8078 65.9298L71.7168 43.667C73.2554 40.2194 77.3549 38.501 80.8918 39.821L88.2961 42.6101M38.8389 52.3821C40.5647 51.6587 41.9499 50.3209 42.6898 48.6631C43.4296 47.0054 43.4635 45.1633 42.784 43.5422C42.1045 41.9212 40.7672 40.6539 39.0664 40.0191C37.3656 39.3844 35.4406 39.4342 33.7148 40.1576C31.989 40.881 30.6038 42.2187 29.864 43.8765C29.1241 45.5343 29.0902 47.3764 29.7697 48.9974C30.4492 50.6185 31.7865 51.8858 33.4873 52.5206C35.1881 53.1553 37.1131 53.1055 38.8389 52.3821V52.3821Z" stroke="white" stroke-width="1.5" stroke-linecap="round" stroke-linejoin="round"/>
</g>
<defs>
<clipPath id="clip0_117_1796">
<rect width="84.6682" height="79.5302" fill="white" transform="translate(0 32.7312) rotate(-22.742)"/>
</clipPath>
</defs>
</svg>
