<svg width="144" height="146" viewBox="0 0 144 146" fill="none" xmlns="http://www.w3.org/2000/svg">
<g clip-path="url(#clip0_117_1787)">
<path d="M62.1716 130.137C53.47 115.005 60.777 94.5175 78.4377 84.3618C82.0146 82.305 85.772 80.8207 89.5531 79.8951M71.6923 72.6316C76.6332 69.7904 80.1872 65.0058 81.5725 59.3303C82.9579 53.6549 82.0611 47.5535 79.0794 42.3684C76.0978 37.1833 71.2755 33.3393 65.6735 31.6819C60.0714 30.0245 54.1485 30.6896 49.2076 33.5308C44.2668 36.372 40.7128 41.1566 39.3274 46.832C37.9421 52.5075 38.8389 58.6088 41.8205 63.7939C44.8022 68.979 49.6244 72.8231 55.2265 74.4805C60.8285 76.1378 66.7515 75.4728 71.6923 72.6316V72.6316Z" stroke="white" stroke-width="1.5" stroke-linecap="round" stroke-linejoin="round"/>
<path d="M122.442 74.6665C124.128 77.599 124.942 80.8251 124.913 83.9639C124.94 85.8215 124.653 87.6512 124.083 89.332C122.891 93.2951 120.296 96.713 116.532 98.877C113.967 100.36 111.04 101.116 108.041 101.07C105.042 101.025 102.073 100.18 99.4278 98.619C96.6164 97.0119 94.2644 94.6534 92.6349 91.8069C89.8018 86.8802 89.4221 81.2191 91.2085 76.3936C92.3397 73.2911 94.3175 70.616 96.9141 68.6766C99.5106 66.7372 102.62 65.6124 105.885 65.4319C109.149 65.2514 112.435 66.0225 115.365 67.6563C118.294 69.2901 120.747 71.7202 122.442 74.6665V74.6665Z" stroke="white" stroke-width="1.5" stroke-miterlimit="10" stroke-linecap="round" stroke-linejoin="round"/>
<path d="M101.726 86.5789L107.641 88.3288L111.147 76.0623" stroke="white" stroke-width="1.5" stroke-linecap="round" stroke-linejoin="round"/>
</g>
<defs>
<clipPath id="clip0_117_1787">
<rect width="103.152" height="108.251" fill="white" transform="translate(0 51.4211) rotate(-29.9008)"/>
</clipPath>
</defs>
</svg>
