<svg width="67" height="53" viewBox="0 0 67 53" fill="none" xmlns="http://www.w3.org/2000/svg">
<path d="M25.1317 18.1756L17.3473 29.2443H45.7605L25.1317 18.1756Z" fill="black"/>
<path d="M25.1317 18.1756L45.7605 29.2443L39.3383 18.1756H25.1317Z" fill="black"/>
<path d="M32.9162 7.10687L25.1317 18.1756H39.3383L32.9162 7.10687Z" fill="black"/>
<path fill-rule="evenodd" clip-rule="evenodd" d="M1 1V37.2595H15.012V51L24.7425 37.2595H66V1H1ZM17.3473 29.2443L25.1317 18.1756L32.9162 7.10687L39.3383 18.1756L45.7605 29.2443H17.3473Z" fill="black"/>
<path d="M45.7605 29.2443L25.1317 18.1756M45.7605 29.2443L39.3383 18.1756M45.7605 29.2443H17.3473L25.1317 18.1756M25.1317 18.1756L32.9162 7.10687L39.3383 18.1756M25.1317 18.1756H39.3383M1 1V37.2595H15.012V51L24.7425 37.2595H66V1H1Z" stroke="white"/>
</svg>
